<svg width="478" height="277" viewBox="0 0 478 277" fill="none" xmlns="http://www.w3.org/2000/svg">
<rect width="478" height="277" fill="white"/>
<circle cx="138" cy="143" r="114" fill="#ED212E"/>
<line x1="120.435" y1="21.567" x2="69.4349" y2="240.567" stroke="white" stroke-width="5"/>
<path d="M155.849 56.7003V52.0909H188.031V56.7003H174.538V95H169.342V56.7003H155.849ZM196.051 95V52.0909H201.247V71.1989H224.126V52.0909H229.322V95H224.126V75.8082H201.247V95H196.051ZM239.724 95V52.0909H265.621V56.7003H244.92V71.1989H264.28V75.8082H244.92V90.3906H265.956V95H239.724Z" fill="black"/>
<path d="M170.298 164H155.603V122.545H170.42C174.589 122.545 178.179 123.375 181.188 125.035C184.197 126.681 186.512 129.05 188.131 132.14C189.764 135.23 190.58 138.928 190.58 143.232C190.58 147.55 189.764 151.261 188.131 154.365C186.512 157.469 184.184 159.85 181.148 161.51C178.125 163.17 174.509 164 170.298 164ZM164.368 156.49H169.934C172.525 156.49 174.704 156.032 176.472 155.114C178.253 154.183 179.589 152.746 180.48 150.803C181.384 148.846 181.836 146.322 181.836 143.232C181.836 140.169 181.384 137.666 180.48 135.723C179.589 133.779 178.26 132.349 176.492 131.431C174.724 130.514 172.545 130.055 169.954 130.055H164.368V156.49ZM197.073 164V122.545H225.006V129.772H205.837V139.65H223.569V146.876H205.837V156.774H225.087V164H197.073ZM231.974 164V122.545H248.572C251.622 122.545 254.165 122.998 256.203 123.902C258.241 124.806 259.772 126.061 260.798 127.667C261.824 129.259 262.336 131.094 262.336 133.172C262.336 134.792 262.012 136.215 261.365 137.443C260.717 138.658 259.826 139.656 258.693 140.439C257.573 141.208 256.291 141.755 254.847 142.078V142.483C256.426 142.551 257.903 142.996 259.28 143.819C260.67 144.642 261.797 145.796 262.66 147.281C263.524 148.751 263.956 150.506 263.956 152.543C263.956 154.743 263.409 156.706 262.316 158.434C261.237 160.147 259.637 161.504 257.519 162.502C255.4 163.501 252.789 164 249.685 164H231.974ZM240.739 156.835H247.884C250.326 156.835 252.108 156.369 253.228 155.438C254.348 154.493 254.908 153.238 254.908 151.673C254.908 150.526 254.631 149.514 254.078 148.637C253.525 147.76 252.735 147.071 251.71 146.572C250.697 146.073 249.49 145.823 248.086 145.823H240.739V156.835ZM240.739 139.892H247.236C248.437 139.892 249.503 139.683 250.434 139.265C251.379 138.833 252.121 138.226 252.661 137.443C253.214 136.661 253.491 135.723 253.491 134.63C253.491 133.132 252.958 131.924 251.892 131.006C250.839 130.089 249.341 129.63 247.398 129.63H240.739V139.892ZM276.804 164H267.412L281.723 122.545H293.017L307.308 164H297.916L287.532 132.018H287.208L276.804 164ZM276.217 147.706H298.402V154.547H276.217V147.706ZM305.653 129.772V122.545H339.699V129.772H327.008V164H318.344V129.772H305.653ZM345.306 164V122.545H373.239V129.772H354.071V139.65H371.802V146.876H354.071V156.774H373.32V164H345.306ZM380.207 164V122.545H396.563C399.693 122.545 402.365 123.105 404.578 124.225C406.805 125.332 408.498 126.904 409.659 128.942C410.833 130.966 411.42 133.348 411.42 136.087C411.42 138.84 410.826 141.208 409.639 143.192C408.451 145.162 406.731 146.673 404.477 147.726C402.237 148.778 399.525 149.305 396.34 149.305H385.389V142.261H394.923C396.596 142.261 397.986 142.031 399.093 141.572C400.199 141.114 401.022 140.425 401.562 139.508C402.116 138.59 402.392 137.45 402.392 136.087C402.392 134.711 402.116 133.55 401.562 132.605C401.022 131.661 400.193 130.946 399.073 130.46C397.966 129.961 396.569 129.711 394.883 129.711H388.972V164H380.207ZM402.595 145.135L412.897 164H403.222L393.142 145.135H402.595ZM440.102 134.468C439.94 132.835 439.245 131.566 438.017 130.662C436.789 129.758 435.123 129.306 433.017 129.306C431.587 129.306 430.379 129.509 429.394 129.913C428.409 130.305 427.653 130.851 427.127 131.553C426.614 132.255 426.358 133.051 426.358 133.941C426.331 134.684 426.486 135.331 426.824 135.885C427.174 136.438 427.653 136.917 428.261 137.322C428.868 137.713 429.57 138.057 430.366 138.354C431.162 138.637 432.012 138.88 432.916 139.083L436.641 139.973C438.449 140.378 440.109 140.918 441.62 141.593C443.131 142.267 444.44 143.097 445.547 144.082C446.653 145.067 447.51 146.228 448.118 147.564C448.738 148.9 449.055 150.431 449.069 152.159C449.055 154.696 448.408 156.895 447.126 158.757C445.857 160.606 444.022 162.043 441.62 163.069C439.232 164.081 436.351 164.587 432.977 164.587C429.63 164.587 426.716 164.074 424.233 163.049C421.763 162.023 419.834 160.505 418.444 158.494C417.067 156.47 416.345 153.967 416.278 150.985H424.759C424.853 152.375 425.252 153.535 425.953 154.466C426.668 155.384 427.62 156.079 428.807 156.551C430.008 157.01 431.364 157.239 432.876 157.239C434.36 157.239 435.649 157.023 436.742 156.592C437.848 156.16 438.705 155.559 439.313 154.79C439.92 154.021 440.223 153.137 440.223 152.138C440.223 151.207 439.947 150.425 439.394 149.79C438.854 149.156 438.058 148.616 437.005 148.171C435.966 147.726 434.691 147.321 433.179 146.957L428.666 145.823C425.171 144.973 422.411 143.644 420.387 141.836C418.363 140.027 417.357 137.592 417.371 134.528C417.357 132.018 418.025 129.826 419.375 127.95C420.738 126.074 422.607 124.61 424.982 123.558C427.357 122.505 430.055 121.979 433.078 121.979C436.155 121.979 438.84 122.505 441.134 123.558C443.442 124.61 445.237 126.074 446.519 127.95C447.801 129.826 448.462 131.998 448.502 134.468H440.102ZM462.029 122.545V126.918C462.029 128.159 461.786 129.428 461.3 130.723C460.828 132.005 460.193 133.219 459.397 134.366C458.601 135.5 457.731 136.465 456.786 137.261L452.981 135.014C453.655 133.948 454.249 132.767 454.762 131.472C455.288 130.176 455.551 128.672 455.551 126.958V122.545H462.029ZM192.179 206.059H183.314C183.152 204.912 182.821 203.893 182.322 203.002C181.822 202.098 181.181 201.329 180.399 200.695C179.616 200.06 178.712 199.575 177.686 199.237C176.674 198.9 175.575 198.731 174.387 198.731C172.241 198.731 170.373 199.264 168.78 200.33C167.188 201.383 165.953 202.921 165.076 204.945C164.199 206.956 163.76 209.398 163.76 212.273C163.76 215.228 164.199 217.711 165.076 219.722C165.967 221.732 167.208 223.25 168.8 224.276C170.393 225.301 172.235 225.814 174.326 225.814C175.5 225.814 176.587 225.659 177.585 225.349C178.597 225.038 179.495 224.586 180.277 223.993C181.06 223.385 181.708 222.65 182.221 221.786C182.747 220.923 183.111 219.937 183.314 218.831L192.179 218.871C191.95 220.774 191.376 222.609 190.459 224.377C189.555 226.131 188.333 227.703 186.795 229.093C185.27 230.47 183.449 231.563 181.33 232.373C179.225 233.169 176.843 233.567 174.185 233.567C170.487 233.567 167.181 232.73 164.266 231.057C161.365 229.384 159.071 226.961 157.384 223.79C155.711 220.619 154.874 216.78 154.874 212.273C154.874 207.752 155.724 203.906 157.425 200.735C159.125 197.564 161.433 195.148 164.347 193.489C167.262 191.815 170.541 190.979 174.185 190.979C176.587 190.979 178.813 191.316 180.864 191.991C182.929 192.665 184.757 193.651 186.35 194.946C187.942 196.228 189.238 197.8 190.236 199.662C191.248 201.525 191.896 203.657 192.179 206.059ZM236.559 212.273C236.559 216.793 235.702 220.639 233.988 223.81C232.288 226.982 229.967 229.404 227.025 231.077C224.097 232.737 220.804 233.567 217.147 233.567C213.463 233.567 210.157 232.73 207.229 231.057C204.301 229.384 201.986 226.961 200.286 223.79C198.586 220.619 197.736 216.78 197.736 212.273C197.736 207.752 198.586 203.906 200.286 200.735C201.986 197.564 204.301 195.148 207.229 193.489C210.157 191.815 213.463 190.979 217.147 190.979C220.804 190.979 224.097 191.815 227.025 193.489C229.967 195.148 232.288 197.564 233.988 200.735C235.702 203.906 236.559 207.752 236.559 212.273ZM227.673 212.273C227.673 209.344 227.234 206.875 226.357 204.864C225.493 202.854 224.272 201.329 222.693 200.29C221.115 199.251 219.266 198.731 217.147 198.731C215.029 198.731 213.18 199.251 211.601 200.29C210.022 201.329 208.794 202.854 207.917 204.864C207.053 206.875 206.622 209.344 206.622 212.273C206.622 215.201 207.053 217.67 207.917 219.681C208.794 221.692 210.022 223.217 211.601 224.256C213.18 225.295 215.029 225.814 217.147 225.814C219.266 225.814 221.115 225.295 222.693 224.256C224.272 223.217 225.493 221.692 226.357 219.681C227.234 217.67 227.673 215.201 227.673 212.273ZM268.657 191.545H277.421V218.467C277.421 221.489 276.699 224.134 275.255 226.401C273.825 228.668 271.821 230.436 269.244 231.705C266.666 232.96 263.664 233.587 260.236 233.587C256.795 233.587 253.786 232.96 251.209 231.705C248.631 230.436 246.627 228.668 245.197 226.401C243.766 224.134 243.051 221.489 243.051 218.467V191.545H251.816V217.718C251.816 219.297 252.16 220.7 252.848 221.928C253.55 223.156 254.535 224.121 255.803 224.822C257.072 225.524 258.549 225.875 260.236 225.875C261.937 225.875 263.414 225.524 264.669 224.822C265.938 224.121 266.916 223.156 267.604 221.928C268.306 220.7 268.657 219.297 268.657 217.718V191.545ZM319.306 191.545V233H311.736L293.7 206.909H293.397V233H284.632V191.545H292.324L310.218 217.616H310.582V191.545H319.306ZM363.124 206.059H354.258C354.096 204.912 353.765 203.893 353.266 203.002C352.767 202.098 352.126 201.329 351.343 200.695C350.56 200.06 349.656 199.575 348.631 199.237C347.619 198.9 346.519 198.731 345.331 198.731C343.186 198.731 341.317 199.264 339.725 200.33C338.132 201.383 336.897 202.921 336.02 204.945C335.143 206.956 334.705 209.398 334.705 212.273C334.705 215.228 335.143 217.711 336.02 219.722C336.911 221.732 338.152 223.25 339.745 224.276C341.337 225.301 343.179 225.814 345.271 225.814C346.445 225.814 347.531 225.659 348.53 225.349C349.542 225.038 350.439 224.586 351.222 223.993C352.004 223.385 352.652 222.65 353.165 221.786C353.691 220.923 354.055 219.937 354.258 218.831L363.124 218.871C362.894 220.774 362.321 222.609 361.403 224.377C360.499 226.131 359.278 227.703 357.739 229.093C356.215 230.47 354.393 231.563 352.274 232.373C350.169 233.169 347.787 233.567 345.129 233.567C341.432 233.567 338.125 232.73 335.211 231.057C332.309 229.384 330.015 226.961 328.329 223.79C326.655 220.619 325.819 216.78 325.819 212.273C325.819 207.752 326.669 203.906 328.369 200.735C330.069 197.564 332.377 195.148 335.292 193.489C338.206 191.815 341.486 190.979 345.129 190.979C347.531 190.979 349.758 191.316 351.809 191.991C353.873 192.665 355.702 193.651 357.294 194.946C358.886 196.228 360.182 197.8 361.18 199.662C362.193 201.525 362.84 203.657 363.124 206.059ZM378.173 191.545V233H369.409V191.545H378.173ZM385.384 233V191.545H394.149V225.774H411.921V233H385.384Z" fill="black"/>
</svg>
