<svg width="542" height="542" viewBox="0 0 542 542" fill="none" xmlns="http://www.w3.org/2000/svg">
<rect width="542" height="542" fill="#262626"/>
<circle cx="157" cy="244" r="114" fill="#ED212E"/>
<line x1="138.433" y1="130.576" x2="89.4328" y2="337.576" stroke="#262626" stroke-width="5"/>
<path d="M174.849 184.7V180.091H207.031V184.7H193.538V223H188.342V184.7H174.849ZM215.051 223V180.091H220.247V199.199H243.126V180.091H248.322V223H243.126V203.808H220.247V223H215.051ZM258.724 223V180.091H284.621V184.7H263.92V199.199H283.28V203.808H263.92V218.391H284.956V223H258.724Z" fill="white"/>
<path d="M189.298 292H174.603V250.545H189.42C193.589 250.545 197.179 251.375 200.188 253.035C203.197 254.681 205.512 257.05 207.131 260.14C208.764 263.23 209.58 266.928 209.58 271.232C209.58 275.55 208.764 279.261 207.131 282.365C205.512 285.469 203.184 287.85 200.148 289.51C197.125 291.17 193.509 292 189.298 292ZM183.368 284.49H188.934C191.525 284.49 193.704 284.032 195.472 283.114C197.253 282.183 198.589 280.746 199.48 278.803C200.384 276.846 200.836 274.322 200.836 271.232C200.836 268.169 200.384 265.666 199.48 263.723C198.589 261.779 197.26 260.349 195.492 259.431C193.724 258.514 191.545 258.055 188.954 258.055H183.368V284.49ZM216.073 292V250.545H244.006V257.772H224.837V267.65H242.569V274.876H224.837V284.774H244.087V292H216.073ZM250.974 292V250.545H267.572C270.622 250.545 273.165 250.998 275.203 251.902C277.241 252.806 278.772 254.061 279.798 255.667C280.824 257.259 281.336 259.094 281.336 261.172C281.336 262.792 281.012 264.215 280.365 265.443C279.717 266.658 278.826 267.656 277.693 268.439C276.573 269.208 275.291 269.755 273.847 270.078V270.483C275.426 270.551 276.903 270.996 278.28 271.819C279.67 272.642 280.797 273.796 281.66 275.281C282.524 276.751 282.956 278.506 282.956 280.543C282.956 282.743 282.409 284.706 281.316 286.434C280.237 288.147 278.637 289.504 276.519 290.502C274.4 291.501 271.789 292 268.685 292H250.974ZM259.739 284.835H266.884C269.326 284.835 271.108 284.369 272.228 283.438C273.348 282.493 273.908 281.238 273.908 279.673C273.908 278.526 273.631 277.514 273.078 276.637C272.525 275.76 271.735 275.071 270.71 274.572C269.697 274.073 268.49 273.823 267.086 273.823H259.739V284.835ZM259.739 267.892H266.236C267.437 267.892 268.503 267.683 269.434 267.265C270.379 266.833 271.121 266.226 271.661 265.443C272.214 264.661 272.491 263.723 272.491 262.63C272.491 261.132 271.958 259.924 270.892 259.006C269.839 258.089 268.341 257.63 266.398 257.63H259.739V267.892ZM295.804 292H286.412L300.723 250.545H312.017L326.308 292H316.916L306.532 260.018H306.208L295.804 292ZM295.217 275.706H317.402V282.547H295.217V275.706ZM324.653 257.772V250.545H358.699V257.772H346.008V292H337.344V257.772H324.653ZM364.306 292V250.545H392.239V257.772H373.071V267.65H390.802V274.876H373.071V284.774H392.32V292H364.306ZM399.207 292V250.545H415.563C418.693 250.545 421.365 251.105 423.578 252.225C425.805 253.332 427.498 254.904 428.659 256.942C429.833 258.966 430.42 261.348 430.42 264.087C430.42 266.84 429.826 269.208 428.639 271.192C427.451 273.162 425.731 274.673 423.477 275.726C421.237 276.778 418.525 277.305 415.34 277.305H404.389V270.261H413.923C415.596 270.261 416.986 270.031 418.093 269.572C419.199 269.114 420.022 268.425 420.562 267.508C421.116 266.59 421.392 265.45 421.392 264.087C421.392 262.711 421.116 261.55 420.562 260.605C420.022 259.661 419.193 258.946 418.073 258.46C416.966 257.961 415.569 257.711 413.883 257.711H407.972V292H399.207ZM421.595 273.135L431.897 292H422.222L412.142 273.135H421.595ZM459.102 262.468C458.94 260.835 458.245 259.566 457.017 258.662C455.789 257.758 454.123 257.306 452.017 257.306C450.587 257.306 449.379 257.509 448.394 257.913C447.409 258.305 446.653 258.851 446.127 259.553C445.614 260.255 445.358 261.051 445.358 261.941C445.331 262.684 445.486 263.331 445.824 263.885C446.174 264.438 446.653 264.917 447.261 265.322C447.868 265.713 448.57 266.057 449.366 266.354C450.162 266.637 451.012 266.88 451.916 267.083L455.641 267.973C457.449 268.378 459.109 268.918 460.62 269.593C462.131 270.267 463.44 271.097 464.547 272.082C465.653 273.067 466.51 274.228 467.118 275.564C467.738 276.9 468.055 278.431 468.069 280.159C468.055 282.696 467.408 284.895 466.126 286.757C464.857 288.606 463.022 290.043 460.62 291.069C458.232 292.081 455.351 292.587 451.977 292.587C448.63 292.587 445.716 292.074 443.233 291.049C440.763 290.023 438.834 288.505 437.444 286.494C436.067 284.47 435.345 281.967 435.278 278.985H443.759C443.853 280.375 444.252 281.535 444.953 282.466C445.668 283.384 446.62 284.079 447.807 284.551C449.008 285.01 450.364 285.239 451.876 285.239C453.36 285.239 454.649 285.023 455.742 284.592C456.848 284.16 457.705 283.559 458.313 282.79C458.92 282.021 459.223 281.137 459.223 280.138C459.223 279.207 458.947 278.425 458.394 277.79C457.854 277.156 457.058 276.616 456.005 276.171C454.966 275.726 453.691 275.321 452.179 274.957L447.666 273.823C444.171 272.973 441.411 271.644 439.387 269.836C437.363 268.027 436.357 265.592 436.371 262.528C436.357 260.018 437.025 257.826 438.375 255.95C439.738 254.074 441.607 252.61 443.982 251.558C446.357 250.505 449.055 249.979 452.078 249.979C455.155 249.979 457.84 250.505 460.134 251.558C462.442 252.61 464.237 254.074 465.519 255.95C466.801 257.826 467.462 259.998 467.502 262.468H459.102ZM481.029 250.545V254.918C481.029 256.159 480.786 257.428 480.3 258.723C479.828 260.005 479.193 261.219 478.397 262.366C477.601 263.5 476.731 264.465 475.786 265.261L471.981 263.014C472.655 261.948 473.249 260.767 473.762 259.472C474.288 258.176 474.551 256.672 474.551 254.958V250.545H481.029ZM211.179 334.059H202.314C202.152 332.912 201.821 331.893 201.322 331.002C200.822 330.098 200.181 329.329 199.399 328.695C198.616 328.06 197.712 327.575 196.686 327.237C195.674 326.9 194.575 326.731 193.387 326.731C191.241 326.731 189.373 327.264 187.78 328.33C186.188 329.383 184.953 330.921 184.076 332.945C183.199 334.956 182.76 337.398 182.76 340.273C182.76 343.228 183.199 345.711 184.076 347.722C184.967 349.732 186.208 351.25 187.8 352.276C189.393 353.301 191.235 353.814 193.326 353.814C194.5 353.814 195.587 353.659 196.585 353.349C197.597 353.038 198.495 352.586 199.277 351.993C200.06 351.385 200.708 350.65 201.221 349.786C201.747 348.923 202.111 347.937 202.314 346.831L211.179 346.871C210.95 348.774 210.376 350.609 209.459 352.377C208.555 354.131 207.333 355.703 205.795 357.093C204.27 358.47 202.449 359.563 200.33 360.373C198.225 361.169 195.843 361.567 193.185 361.567C189.487 361.567 186.181 360.73 183.266 359.057C180.365 357.384 178.071 354.961 176.384 351.79C174.711 348.619 173.874 344.78 173.874 340.273C173.874 335.752 174.724 331.906 176.425 328.735C178.125 325.564 180.433 323.148 183.347 321.489C186.262 319.815 189.541 318.979 193.185 318.979C195.587 318.979 197.813 319.316 199.864 319.991C201.929 320.665 203.757 321.651 205.35 322.946C206.942 324.228 208.238 325.8 209.236 327.662C210.248 329.525 210.896 331.657 211.179 334.059ZM255.559 340.273C255.559 344.793 254.702 348.639 252.988 351.81C251.288 354.982 248.967 357.404 246.025 359.077C243.097 360.737 239.804 361.567 236.147 361.567C232.463 361.567 229.157 360.73 226.229 359.057C223.301 357.384 220.986 354.961 219.286 351.79C217.586 348.619 216.736 344.78 216.736 340.273C216.736 335.752 217.586 331.906 219.286 328.735C220.986 325.564 223.301 323.148 226.229 321.489C229.157 319.815 232.463 318.979 236.147 318.979C239.804 318.979 243.097 319.815 246.025 321.489C248.967 323.148 251.288 325.564 252.988 328.735C254.702 331.906 255.559 335.752 255.559 340.273ZM246.673 340.273C246.673 337.344 246.234 334.875 245.357 332.864C244.493 330.854 243.272 329.329 241.693 328.29C240.115 327.251 238.266 326.731 236.147 326.731C234.029 326.731 232.18 327.251 230.601 328.29C229.022 329.329 227.794 330.854 226.917 332.864C226.053 334.875 225.622 337.344 225.622 340.273C225.622 343.201 226.053 345.67 226.917 347.681C227.794 349.692 229.022 351.217 230.601 352.256C232.18 353.295 234.029 353.814 236.147 353.814C238.266 353.814 240.115 353.295 241.693 352.256C243.272 351.217 244.493 349.692 245.357 347.681C246.234 345.67 246.673 343.201 246.673 340.273ZM287.657 319.545H296.421V346.467C296.421 349.489 295.699 352.134 294.255 354.401C292.825 356.668 290.821 358.436 288.244 359.705C285.666 360.96 282.664 361.587 279.236 361.587C275.795 361.587 272.786 360.96 270.209 359.705C267.631 358.436 265.627 356.668 264.197 354.401C262.766 352.134 262.051 349.489 262.051 346.467V319.545H270.816V345.718C270.816 347.297 271.16 348.7 271.848 349.928C272.55 351.156 273.535 352.121 274.803 352.822C276.072 353.524 277.549 353.875 279.236 353.875C280.937 353.875 282.414 353.524 283.669 352.822C284.938 352.121 285.916 351.156 286.604 349.928C287.306 348.7 287.657 347.297 287.657 345.718V319.545ZM338.306 319.545V361H330.736L312.7 334.909H312.397V361H303.632V319.545H311.324L329.218 345.616H329.582V319.545H338.306ZM382.124 334.059H373.258C373.096 332.912 372.765 331.893 372.266 331.002C371.767 330.098 371.126 329.329 370.343 328.695C369.56 328.06 368.656 327.575 367.631 327.237C366.619 326.9 365.519 326.731 364.331 326.731C362.186 326.731 360.317 327.264 358.725 328.33C357.132 329.383 355.897 330.921 355.02 332.945C354.143 334.956 353.705 337.398 353.705 340.273C353.705 343.228 354.143 345.711 355.02 347.722C355.911 349.732 357.152 351.25 358.745 352.276C360.337 353.301 362.179 353.814 364.271 353.814C365.445 353.814 366.531 353.659 367.53 353.349C368.542 353.038 369.439 352.586 370.222 351.993C371.004 351.385 371.652 350.65 372.165 349.786C372.691 348.923 373.055 347.937 373.258 346.831L382.124 346.871C381.894 348.774 381.321 350.609 380.403 352.377C379.499 354.131 378.278 355.703 376.739 357.093C375.215 358.47 373.393 359.563 371.274 360.373C369.169 361.169 366.787 361.567 364.129 361.567C360.432 361.567 357.125 360.73 354.211 359.057C351.309 357.384 349.015 354.961 347.329 351.79C345.655 348.619 344.819 344.78 344.819 340.273C344.819 335.752 345.669 331.906 347.369 328.735C349.069 325.564 351.377 323.148 354.292 321.489C357.206 319.815 360.486 318.979 364.129 318.979C366.531 318.979 368.758 319.316 370.809 319.991C372.873 320.665 374.702 321.651 376.294 322.946C377.886 324.228 379.182 325.8 380.18 327.662C381.193 329.525 381.84 331.657 382.124 334.059ZM397.173 319.545V361H388.409V319.545H397.173ZM404.384 361V319.545H413.149V353.774H430.921V361H404.384Z" fill="white"/>
</svg>
